# xmcd
#
# Track frame offsets:
#	182
#	49982
#	68282
#
# Disc length: 2288 seconds
#
# Revision: 1
# Processed by: cddbd v1.5PL3 Copyright (c) Steve Scherf et al.
# Submitted via: CDex 1.50Beta5
#
DISCID=1e08ee03
DTITLE=G. Mahler - Mahler - Symphonie Nr. 3 - Giuseppe Sinopoli
DYEAR=1900
DGENRE=Classical -> Romantic Era
TTITLE0=4. Sehr Langsam. Misterios. Durchaus Ppp (O Mensch! Gib Acht!)
TTITLE1=5. Lustig Im Tempo Und Keck Im Ausdruck (Bimm Bamm! Es Sumgen Drei Engel Einen Sussen Gesang)
TTITLE2=6. Langsam. Ruhevoll. Empfunden
EXTD=
EXTT0=
EXTT1=
EXTT2=
PLAYORDER=
